<svg width="980" height="551" xmlns="http://www.w3.org/2000/svg" xmlns:xlink="http://www.w3.org/1999/xlink">
<path fill="#ff595e" d="M 241.78 278.16 Q 241.78 278.16 241.31 279.68 240.85 281.19 239.46 282.56 238.07 283.92 237.07 285.25 236.07 286.57 235.76 287.52 235.44 288.47 235.45 289.68 235.46 290.89 236.47 291.93 237.48 292.97 238.95 293.94 240.42 294.92 241.48 295.46 242.53 296.01 243.90 296.52 245.26 297.03 246.84 297.46 248.43 297.88 250.03 298.15 251.63 298.42 253.06 298.55 254.50 298.67 255.62 298.62 256.73 298.57 257.80 298.11 258.88 297.66 259.28 296.52 259.68 295.37 259.70 294.32 259.72 293.27 259.73 291.78 259.74 290.30 259.61 288.75 259.48 287.20 259.13 285.81 258.77 284.41 258.26 283.18 257.74 281.95 257.17 281.09 256.60 280.23 255.51 279.47 254.43 278.71 252.99 278.47 251.55 278.23 249.55 277.16 247.56 276.09 247.56 276.08 247.56 276.08 247.56 276.07 247.56 276.07 249.82 275.17 252.09 274.28 253.11 274.42 254.14 274.57 255.22 274.87 256.30 275.18 257.29 275.76 258.28 276.33 259.11 277.19 259.95 278.05 260.69 279.24 261.44 280.42 262.05 281.94 262.66 283.45 263.06 285.16 263.47 286.87 263.60 288.60 263.74 290.32 263.73 291.84 263.72 293.37 263.56 295.50 263.40 297.63 262.78 298.76 262.16 299.89 260.67 300.95 259.19 302.02 258.05 302.29 256.91 302.56 255.53 302.61 254.14 302.66 252.55 302.51 250.95 302.36 249.17 302.05 247.38 301.74 245.61 301.26 243.84 300.77 242.26 300.16 240.69 299.56 239.50 298.93 238.30 298.31 237.37 297.72 236.43 297.13 234.93 295.89 233.43 294.64 232.49 293.15 231.55 291.66 231.46 290.29 231.38 288.92 231.69 287.40 232.00 285.89 232.91 284.35 233.81 282.80 234.50 281.98 235.18 281.16 235.99 280.32 236.79 279.49 237.70 278.69 238.60 277.89 240.18 278.02 241.76 278.14 241.77 278.15 Z"></path><path fill="#ff595e" d="M 213.42 313.97 Q 213.42 313.97 215.90 312.97 218.37 311.98 222.40 311.98 226.42 311.98 231.54 311.98 236.66 311.98 241.32 311.98 245.99 311.98 249.76 311.98 253.54 311.98 256.29 311.98 259.03 311.98 261.21 311.98 263.38 311.98 265.00 311.99 266.63 312.00 268.35 312.88 270.07 313.77 270.07 313.77 270.07 313.77 270.07 313.77 270.07 313.77 270.07 313.77 270.08 313.77 270.08 313.77 270.08 313.77 270.08 313.77 270.08 313.77 270.08 313.77 270.08 313.78 270.08 313.78 270.08 313.78 270.08 313.78 270.08 313.78 270.08 313.78 270.08 313.78 270.08 313.78 270.08 313.78 270.07 313.78 270.07 313.79 270.07 313.79 270.07 313.79 270.07 313.79 270.07 313.79 270.07 313.78 270.07 313.78 270.07 313.77 270.07 313.77 270.07 313.77 270.07 313.77 270.07 313.77 270.07 313.77 270.07 313.77 270.08 313.77 270.08 313.77 270.08 313.77 270.08 313.77 270.08 313.77 270.08 313.77 270.08 313.78 270.08 313.78 270.08 313.78 270.08 313.78 270.08 313.78 270.08 313.78 270.08 313.78 270.08 313.78 270.08 313.78 270.07 313.78 270.07 313.79 270.07 313.79 270.07 313.79 270.07 313.79 270.07 313.79 268.35 314.87 266.63 315.96 265.00 315.97 263.38 315.98 261.21 315.98 259.03 315.98 256.29 315.98 253.54 315.98 249.76 315.98 245.99 315.98 241.32 315.98 236.66 315.98 231.54 315.98 226.42 315.98 222.40 315.98 218.37 315.98 215.90 314.98 213.42 313.99 213.42 313.98 Z"></path><path fill="#ff595e" d="M 201.15 266.61 Q 201.15 266.61 202.15 268.60 203.14 270.59 203.14 273.87 203.14 277.15 203.14 281.39 203.14 285.63 203.14 289.66 203.14 293.69 203.14 296.94 203.14 300.19 203.14 302.57 203.14 304.95 203.14 306.57 203.14 308.19 203.32 309.54 203.50 310.89 204.78 311.79 206.06 312.69 207.03 313.19 208.00 313.69 208.98 314.12 209.96 314.55 211.75 315.21 213.54 315.86 214.57 316.11 215.59 316.35 217.16 316.61 218.74 316.86 221.00 317.04 223.26 317.22 226.27 317.29 229.28 317.37 233.02 317.24 236.77 317.10 241.41 316.30 246.05 315.51 251.26 313.96 256.47 312.42 261.84 310.41 267.21 308.40 272.56 306.04 277.91 303.69 282.41 301.39 286.92 299.09 290.32 297.12 293.72 295.16 296.30 293.47 298.89 291.78 300.76 290.38 302.63 288.98 303.95 287.83 305.28 286.68 306.24 285.57 307.20 284.45 307.89 283.34 308.58 282.24 309.05 281.23 309.52 280.21 309.90 279.28 310.29 278.35 310.67 277.12 311.05 275.90 309.53 274.45 308.02 273.01 305.88 271.84 303.73 270.68 300.59 269.03 297.45 267.38 293.33 265.40 289.20 263.43 284.20 261.31 279.20 259.19 273.85 257.17 268.49 255.14 263.29 253.53 258.08 251.92 253.26 250.89 248.44 249.86 244.58 249.34 240.72 248.81 237.75 248.58 234.79 248.34 232.12 248.37 229.45 248.40 227.26 248.80 225.08 249.20 223.31 250.00 221.54 250.80 219.66 251.99 217.78 253.17 215.80 254.72 213.83 256.27 211.89 258.07 209.96 259.88 208.30 261.61 206.64 263.35 205.29 264.99 203.93 266.64 202.76 268.21 201.58 269.79 200.67 271.12 199.76 272.45 199.11 273.60 198.47 274.74 198.01 275.82 197.56 276.89 197.29 277.96 197.02 279.03 196.89 280.18 196.76 281.33 196.70 282.63 196.64 283.92 196.75 285.23 196.85 286.53 197.43 287.75 198.02 288.97 199.38 290.39 200.74 291.82 202.93 293.45 205.11 295.07 207.76 296.67 210.41 298.27 213.14 299.72 215.87 301.16 218.59 302.37 221.31 303.57 224.18 304.48 227.04 305.39 230.29 306.10 233.53 306.82 237.06 307.35 240.58 307.87 243.80 308.15 247.02 308.42 249.73 308.54 252.44 308.65 254.66 308.70 256.89 308.75 259.65 309.78 262.41 310.81 262.41 310.82 262.41 310.82 262.41 310.83 262.41 310.83 259.61 311.79 256.80 312.75 254.53 312.70 252.27 312.65 249.47 312.53 246.68 312.40 243.34 312.12 239.99 311.83 236.33 311.28 232.67 310.73 229.25 309.96 225.83 309.20 222.76 308.21 219.69 307.23 216.84 305.96 214.00 304.70 211.17 303.19 208.34 301.69 205.52 299.98 202.71 298.27 200.25 296.39 197.78 294.52 196.09 292.57 194.39 290.62 193.63 288.76 192.88 286.91 192.76 285.32 192.65 283.74 192.72 282.30 192.79 280.86 192.97 279.44 193.15 278.02 193.51 276.67 193.88 275.31 194.43 274.04 194.99 272.77 195.72 271.48 196.46 270.20 197.42 268.80 198.38 267.40 199.61 265.74 200.85 264.09 202.30 262.34 203.75 260.59 205.49 258.77 207.24 256.95 209.30 255.03 211.36 253.12 213.51 251.45 215.66 249.78 217.80 248.46 219.94 247.14 222.14 246.20 224.35 245.27 226.88 244.84 229.40 244.40 232.25 244.38 235.10 244.36 238.18 244.60 241.26 244.85 245.27 245.40 249.28 245.95 254.27 247.03 259.26 248.10 264.59 249.75 269.91 251.40 275.34 253.46 280.76 255.51 285.85 257.66 290.93 259.82 295.12 261.83 299.32 263.84 302.48 265.50 305.65 267.17 307.90 268.40 310.15 269.63 311.61 270.56 313.08 271.50 314.11 273.14 315.14 274.78 315.04 275.81 314.94 276.83 314.46 278.36 313.98 279.89 313.56 280.91 313.13 281.93 312.54 283.15 311.96 284.37 311.09 285.73 310.21 287.08 309.06 288.39 307.90 289.70 306.46 290.94 305.02 292.19 303.05 293.66 301.08 295.13 298.40 296.87 295.72 298.62 292.23 300.63 288.74 302.65 284.13 305.00 279.52 307.35 274.06 309.75 268.61 312.14 263.11 314.20 257.60 316.25 252.16 317.85 246.72 319.45 241.82 320.27 236.92 321.10 233.04 321.23 229.17 321.37 226.05 321.29 222.94 321.20 220.52 321.00 218.10 320.81 216.37 320.52 214.64 320.24 212.50 319.62 210.36 319.00 209.35 318.61 208.34 318.21 207.26 317.73 206.18 317.24 205.10 316.69 204.02 316.13 202.31 314.86 200.60 313.59 199.91 311.93 199.23 310.27 199.19 309.23 199.14 308.19 199.14 306.57 199.14 304.95 199.14 302.57 199.14 300.19 199.14 296.94 199.14 293.69 199.14 289.66 199.14 285.63 199.14 281.39 199.14 277.15 199.14 273.87 199.14 270.59 200.14 268.60 201.13 266.61 201.14 266.61 Z"></path><path fill="#ff595e" d="M 342.25 171.07 Q 342.25 171.07 342.08 172.28 341.92 173.49 341.93 175.21 341.94 176.92 341.94 178.08 341.95 179.24 342.15 180.56 342.35 181.88 342.96 183.57 343.56 185.26 344.67 187.38 345.77 189.50 347.28 191.77 348.79 194.04 350.43 196.02 352.07 198.00 353.70 199.55 355.33 201.09 356.97 202.30 358.61 203.52 360.07 204.28 361.54 205.05 362.73 205.48 363.92 205.91 365.47 206.21 367.02 206.50 368.05 206.33 369.09 206.16 370.98 205.09 372.86 204.01 374.02 203.26 375.18 202.51 376.37 201.71 377.55 200.91 378.58 200.18 379.60 199.44 380.73 198.51 381.86 197.57 380.10 197.32 378.33 197.07 376.15 196.17 373.97 195.26 371.12 194.16 368.28 193.06 365.57 192.10 362.86 191.15 360.69 190.51 358.52 189.87 356.86 189.51 355.20 189.14 354.13 188.98 353.05 188.82 351.81 189.42 350.57 190.03 348.56 191.10 346.55 192.18 346.55 192.18 346.54 192.18 346.54 192.17 346.53 192.17 346.99 189.86 347.45 187.54 348.30 186.55 349.15 185.56 350.20 185.11 351.26 184.67 352.45 184.77 353.65 184.87 354.86 185.05 356.07 185.24 357.86 185.64 359.65 186.04 361.92 186.71 364.18 187.37 366.95 188.35 369.73 189.33 372.61 190.45 375.50 191.57 377.69 192.47 379.87 193.38 381.25 193.95 382.62 194.53 384.15 195.71 385.68 196.89 385.47 198.30 385.26 199.72 384.38 200.59 383.51 201.46 382.72 202.08 381.93 202.70 380.86 203.46 379.79 204.22 378.57 205.04 377.36 205.86 376.13 206.66 374.90 207.46 373.73 208.14 372.56 208.83 371.39 209.41 370.22 210.00 369.16 210.26 368.10 210.52 366.41 210.37 364.71 210.22 363.63 209.94 362.54 209.66 361.10 209.13 359.67 208.59 357.94 207.66 356.22 206.73 354.39 205.36 352.57 203.99 350.77 202.27 348.98 200.55 347.22 198.40 345.46 196.26 343.84 193.80 342.21 191.34 341.00 188.96 339.79 186.58 339.09 184.53 338.40 182.47 338.17 180.86 337.95 179.26 337.95 178.04 337.94 176.83 338.04 175.02 338.14 173.22 339.01 171.68 339.88 170.15 341.06 170.60 342.24 171.06 342.24 171.06 Z"></path><path fill="#ff595e" d="M 538.03 191.22 Q 538.03 191.22 536.46 193.17 534.90 195.12 533.41 196.36 531.91 197.61 530.69 198.99 529.48 200.37 528.71 201.57 527.95 202.77 527.54 204.77 527.13 206.77 527.07 207.89 527.01 209.01 527.56 210.31 528.11 211.60 529.09 212.26 530.07 212.92 531.72 213.77 533.37 214.61 535.56 215.53 537.74 216.45 540.25 217.23 542.76 218.00 545.62 218.62 548.47 219.24 551.64 219.75 554.82 220.26 558.02 220.61 561.22 220.95 564.28 221.13 567.34 221.30 570.12 221.37 572.90 221.44 575.40 221.48 577.90 221.51 580.02 221.47 582.14 221.43 583.67 221.23 585.21 221.03 586.26 220.75 587.30 220.48 588.23 219.87 589.15 219.27 586.75 218.79 584.34 218.31 580.44 217.03 576.55 215.75 571.33 214.15 566.12 212.55 560.55 210.99 554.98 209.44 549.29 208.05 543.60 206.67 538.72 205.70 533.85 204.74 529.97 204.21 526.08 203.69 523.00 203.46 519.91 203.24 517.41 203.15 514.91 203.05 512.92 203.07 510.94 203.09 509.32 203.36 507.70 203.63 506.19 204.20 504.69 204.78 503.22 205.56 501.75 206.34 500.46 207.17 499.17 207.99 496.67 208.70 494.16 209.40 494.16 209.39 494.15 209.39 494.15 209.38 494.15 209.38 495.59 207.00 497.02 204.62 498.46 203.71 499.89 202.80 501.60 201.92 503.30 201.03 505.18 200.36 507.06 199.68 508.97 199.39 510.89 199.09 512.98 199.07 515.07 199.05 517.63 199.15 520.20 199.25 523.41 199.49 526.62 199.72 530.62 200.27 534.62 200.82 539.59 201.80 544.55 202.78 550.30 204.18 556.05 205.58 561.67 207.15 567.29 208.72 572.54 210.34 577.79 211.95 581.77 213.26 585.75 214.56 587.83 215.35 589.92 216.14 591.14 216.90 592.36 217.65 592.60 219.19 592.83 220.72 592.12 221.74 591.40 222.77 589.85 223.56 588.30 224.35 587.01 224.67 585.71 225.00 583.96 225.21 582.21 225.42 580.03 225.47 577.85 225.51 575.32 225.47 572.79 225.44 569.95 225.37 567.11 225.29 563.95 225.11 560.78 224.93 557.48 224.57 554.18 224.21 550.90 223.68 547.62 223.15 544.60 222.48 541.57 221.82 538.88 220.98 536.19 220.13 533.85 219.15 531.52 218.16 529.60 217.14 527.69 216.13 526.25 214.99 524.82 213.85 524.07 212.54 523.32 211.23 523.17 210.01 523.01 208.79 523.09 207.51 523.17 206.24 523.38 204.81 523.59 203.39 524.08 202.00 524.58 200.62 525.53 199.16 526.49 197.71 527.93 196.12 529.37 194.52 531.20 193.05 533.02 191.59 535.52 191.39 538.02 191.20 538.03 191.21 Z"></path><path fill="#ff595e" d="M 637.62 176.11 Q 637.62 176.11 634.56 177.07 631.49 178.03 627.99 178.01 624.49 178.00 620.85 177.99 617.21 177.98 613.79 177.98 610.37 177.98 607.79 177.98 605.22 177.98 603.51 177.97 601.79 177.97 600.67 177.97 599.54 177.97 598.51 177.95 597.48 177.92 597.08 179.26 596.68 180.61 595.94 182.51 595.20 184.41 594.33 186.91 593.46 189.42 592.70 192.20 591.94 194.99 591.44 197.59 590.94 200.20 590.70 202.47 590.45 204.74 590.35 206.65 590.24 208.56 590.35 209.94 590.45 211.31 590.95 212.25 591.46 213.20 592.59 213.98 593.73 214.76 596.01 215.58 598.30 216.41 601.97 217.29 605.65 218.17 610.36 219.05 615.08 219.92 620.41 220.73 625.74 221.54 631.12 222.22 636.49 222.90 641.45 223.33 646.41 223.76 650.57 223.96 654.73 224.16 657.93 224.24 661.13 224.32 663.47 224.36 665.82 224.40 667.32 224.30 668.82 224.21 669.62 223.39 670.42 222.57 670.45 221.42 670.49 220.27 670.36 218.53 670.24 216.80 669.67 214.54 669.09 212.28 667.91 209.67 666.73 207.06 664.91 204.49 663.09 201.92 660.59 199.62 658.09 197.31 655.01 195.35 651.92 193.40 648.29 191.92 644.66 190.45 640.40 189.50 636.13 188.56 631.32 188.06 626.52 187.56 621.41 187.35 616.29 187.13 611.17 187.31 606.04 187.48 601.34 188.16 596.63 188.84 592.80 189.72 588.97 190.60 585.71 191.71 582.46 192.82 579.61 194.12 576.77 195.43 574.52 196.76 572.28 198.09 570.33 199.62 568.37 201.16 566.52 202.97 564.66 204.78 563.11 206.66 561.55 208.55 560.41 210.37 559.27 212.20 558.46 213.96 557.64 215.72 557.22 217.46 556.79 219.20 555.63 220.84 554.48 222.48 554.47 222.48 554.47 222.48 554.46 222.47 554.46 222.47 553.71 220.36 552.96 218.26 553.49 216.15 554.01 214.04 554.95 212.05 555.88 210.07 557.18 208.03 558.47 206.00 560.17 203.96 561.87 201.91 563.89 199.96 565.91 198.00 568.08 196.33 570.24 194.65 572.67 193.22 575.10 191.80 578.14 190.41 581.17 189.03 584.63 187.87 588.08 186.70 592.07 185.79 596.06 184.88 600.98 184.19 605.91 183.49 611.18 183.31 616.46 183.14 621.70 183.36 626.93 183.58 631.97 184.12 637.01 184.65 641.59 185.70 646.17 186.75 650.12 188.39 654.07 190.02 657.44 192.20 660.82 194.38 663.58 197.00 666.35 199.61 668.36 202.51 670.37 205.41 671.67 208.36 672.97 211.31 673.60 213.91 674.23 216.52 674.36 218.46 674.48 220.40 674.44 221.74 674.39 223.09 674.19 224.12 674.00 225.16 672.66 226.41 671.33 227.66 670.20 227.93 669.07 228.20 667.41 228.30 665.76 228.40 663.39 228.36 661.02 228.32 657.78 228.24 654.54 228.15 650.30 227.95 646.06 227.75 641.02 227.31 635.99 226.87 630.56 226.18 625.14 225.49 619.75 224.67 614.35 223.85 609.53 222.96 604.71 222.06 600.79 221.10 596.87 220.15 594.08 219.04 591.29 217.92 589.63 216.49 587.96 215.06 587.22 213.38 586.49 211.70 586.37 210.02 586.25 208.34 586.36 206.33 586.48 204.31 586.75 201.88 587.01 199.44 587.55 196.69 588.08 193.93 588.88 191.02 589.68 188.11 590.58 185.53 591.47 182.95 592.28 180.91 593.08 178.87 593.75 177.51 594.43 176.16 595.92 175.06 597.42 173.97 598.48 173.97 599.54 173.97 600.67 173.97 601.80 173.97 603.51 173.97 605.22 173.98 607.80 173.98 610.37 173.98 613.80 173.98 617.22 173.98 620.86 173.99 624.51 174.00 628.02 174.01 631.53 174.03 634.58 175.06 637.63 176.09 637.63 176.10 Z"></path><path fill="#ff595e" d="M 648.90 285.51 Q 648.90 285.51 648.89 285.51 648.89 285.51 648.89 285.52 648.88 285.52 648.89 285.51 Z"></path><path fill="#ff595e" d="M 734.15 204.26 Q 734.15 204.26 736.29 202.72 738.42 201.17 741.10 200.57 743.78 199.98 746.88 199.46 749.98 198.94 753.56 198.62 757.14 198.30 761.19 198.17 765.24 198.03 769.98 197.98 774.73 197.92 779.51 197.97 784.28 198.02 788.55 198.58 792.83 199.13 796.74 200.44 800.65 201.76 804.02 203.79 807.39 205.83 810.23 208.62 813.06 211.41 815.38 214.96 817.69 218.51 819.56 223.34 821.43 228.17 822.65 234.56 823.87 240.95 824.14 248.83 824.41 256.71 823.06 266.28 821.71 275.86 818.67 286.52 815.62 297.19 811.99 307.16 808.35 317.13 804.69 325.45 801.02 333.76 797.60 340.17 794.18 346.57 791.05 350.94 787.92 355.30 784.35 358.07 780.77 360.85 775.59 362.38 770.41 363.92 762.75 364.14 755.08 364.37 743.17 361.69 731.25 359.01 717.20 352.82 703.15 346.64 691.43 339.00 679.71 331.36 670.87 323.58 662.04 315.79 655.87 308.63 649.70 301.48 646.16 295.33 642.61 289.18 641.13 283.12 639.64 277.07 641.05 269.59 642.47 262.10 647.57 252.89 652.66 243.69 660.38 233.78 668.09 223.87 676.59 214.63 685.08 205.39 692.99 197.71 700.89 190.04 707.07 184.52 713.25 178.99 717.26 175.67 721.26 172.36 723.75 170.51 726.23 168.66 728.09 168.51 729.94 168.35 729.95 168.35 729.95 168.36 729.95 168.36 729.96 168.37 729.25 170.02 728.54 171.67 726.18 173.55 723.81 175.44 719.86 178.71 715.92 181.97 709.80 187.44 703.68 192.91 695.85 200.50 688.02 208.09 679.63 217.21 671.25 226.33 663.70 235.99 656.15 245.65 651.26 254.29 646.37 262.94 644.95 269.62 643.53 276.30 644.82 281.76 646.10 287.23 649.42 293.05 652.74 298.88 658.71 305.84 664.69 312.79 673.29 320.41 681.90 328.02 693.34 335.50 704.77 342.98 718.46 349.05 732.15 355.12 743.58 357.75 755.01 360.37 762.18 360.22 769.36 360.06 773.90 358.84 778.44 357.63 781.57 355.28 784.71 352.92 787.68 348.80 790.66 344.68 794.01 338.42 797.36 332.15 800.98 323.95 804.59 315.76 808.19 305.92 811.78 296.09 814.77 285.69 817.75 275.29 819.08 266.06 820.41 256.83 820.18 249.25 819.94 241.68 818.81 235.64 817.69 229.59 816.00 225.13 814.32 220.66 812.27 217.44 810.23 214.23 807.76 211.73 805.28 209.23 802.31 207.38 799.34 205.53 795.82 204.31 792.29 203.09 788.26 202.56 784.24 202.02 779.51 201.97 774.78 201.92 770.07 201.98 765.37 202.03 761.43 202.16 757.49 202.29 754.07 202.59 750.64 202.89 747.64 203.39 744.65 203.88 742.01 204.47 739.37 205.06 736.76 204.67 734.15 204.28 734.15 204.27 Z"></path><path fill="#ff595e" d="M 503.93 93.56 Q 503.93 93.56 503.92 93.56 503.92 93.57 503.92 93.57 503.91 93.57 503.92 93.57 Z"></path>
</svg>